# xmcd
#
# Track frame offsets: 
#        150
#        12748
#        29051
#        39707
#        55997
#        70628
#        88952
#        102456
#        115707
#        133167
#        145485
#        159115
#
# Disc length: 2298 seconds
#
# Revision: 1
# Processed by: cddbd v1.5.1PL2 Copyright (c) Steve Scherf et al.
# Submitted via: ExactAudioCopy v0.95b3
#
DISCID=af08f80c
DTITLE=The Dickel Brothers - Volume One
DYEAR=1999
DGENRE=oldtime
TTITLE0=The Farmer's Daughter
TTITLE1=Hungry Hash House
TTITLE2=The Sinners Have Come
TTITLE3=Riley's Hen House
TTITLE4=Chittlin Cookin' Time in Cheatham County
TTITLE5=New River Train
TTITLE6=House Carpenter
TTITLE7=Goodbye Liza Jane
TTITLE8=Late Last Night When Willie Come Home
TTITLE9=When I Die
TTITLE10=My Wife Went Away and She Left Me
TTITLE11=Three Night Experience
EXTD=
EXTT0=
EXTT1=
EXTT2=
EXTT3=
EXTT4=
EXTT5=
EXTT6=
EXTT7=
EXTT8=
EXTT9=
EXTT10=
EXTT11=
PLAYORDER=
